<svg data-v-423bf9ae="" xmlns="http://www.w3.org/2000/svg" viewBox="0 0 408 112" class="iconLeftSlogan"><!----><!----><!----><g data-v-423bf9ae="" id="a690e028-7d23-41b7-b59c-635d061c4bb0" fill="white" transform="matrix(3.7759596415120917,0,0,3.7759596415120917,69.20312369792569,-2.1145383023190334)"><path d="M0.52 14.36C1.27 16.11 3.00 16.45 4.49 16.45C6.94 16.45 8.72 15.20 8.72 12.80L8.72 5.42L6.24 5.42L6.24 6.06L6.20 6.06C5.61 5.52 4.84 5.21 3.89 5.21C1.79 5.21 0.32 6.92 0.32 9.02C0.32 11.12 1.79 12.81 3.89 12.81C4.87 12.81 5.71 12.67 6.24 12.08L6.24 12.61C6.24 13.89 5.18 14.29 4.49 14.29C3.42 14.29 2.81 13.80 2.55 13.37ZM2.95 9.02C2.95 8.02 3.70 7.32 4.63 7.32C5.56 7.32 6.30 8.02 6.30 9.02C6.30 10.00 5.60 10.70 4.63 10.70C3.63 10.70 2.95 10.00 2.95 9.02ZM10.40 12.60L12.88 12.60L12.88 8.82C12.88 8.64 13.06 7.36 14.35 7.36C15.18 7.36 15.64 7.76 15.64 7.76L16.67 5.66C16.67 5.66 16.03 5.21 15.11 5.21C13.69 5.21 12.91 6.45 12.91 6.45L12.88 6.45L12.88 5.42L10.40 5.42ZM24.56 9.35C24.57 9.27 24.57 9.11 24.57 9.02C24.57 6.50 22.90 5.21 20.72 5.21C18.55 5.21 16.77 6.92 16.77 9.02C16.77 11.10 18.55 12.81 20.72 12.81C22.32 12.81 23.63 12.29 24.44 10.93L22.65 10.04C22.05 10.68 21.70 10.84 20.90 10.84C20.27 10.84 19.35 10.46 19.35 9.35ZM19.42 7.98C19.46 7.32 19.94 6.82 20.79 6.82C21.52 6.82 22.04 7.22 22.15 7.98ZM33.00 9.35C33.01 9.27 33.01 9.11 33.01 9.02C33.01 6.50 31.35 5.21 29.16 5.21C26.99 5.21 25.21 6.92 25.21 9.02C25.21 11.10 26.99 12.81 29.16 12.81C30.76 12.81 32.07 12.29 32.89 10.93L31.09 10.04C30.49 10.68 30.14 10.84 29.34 10.84C28.71 10.84 27.79 10.46 27.79 9.35ZM27.86 7.98C27.90 7.32 28.38 6.82 29.23 6.82C29.96 6.82 30.48 7.22 30.59 7.98ZM34.15 12.60L36.62 12.60L36.62 8.54C36.62 7.83 37.35 7.14 38.09 7.14C38.89 7.14 39.38 7.83 39.38 8.54L39.38 12.60L41.86 12.60L41.86 7.87C41.86 5.87 40.03 5.21 38.71 5.21C37.93 5.21 37.21 5.61 36.65 6.17L36.62 6.17L36.62 5.42L34.15 5.42ZM43.74 5.42L42.70 5.42L42.70 7.31L43.74 7.31L43.74 10.07C43.74 11.34 44.21 12.81 46.19 12.81C47.21 12.81 48.01 12.36 48.01 12.36L47.39 10.36C47.39 10.36 47.10 10.58 46.77 10.58C46.38 10.58 46.21 10.26 46.21 9.59L46.21 7.31L47.73 7.31L47.73 5.42L46.21 5.42L46.21 2.74L43.74 2.74ZM48.85 12.60L51.32 12.60L51.32 8.54C51.32 7.83 52.05 7.14 52.79 7.14C53.59 7.14 54.08 7.83 54.08 8.54L54.08 12.60L56.56 12.60L56.56 7.87C56.56 5.87 54.73 5.21 53.41 5.21C52.63 5.21 51.91 5.61 51.35 6.17L51.32 6.17L51.32 0.56L48.85 0.56ZM60.44 5.42L57.96 5.42L57.96 9.44C57.96 11.84 59.16 12.81 61.85 12.81C64.54 12.81 65.74 11.84 65.74 9.44L65.74 5.42L63.27 5.42L63.27 8.83C63.27 10.25 62.89 10.79 61.85 10.79C60.82 10.79 60.44 10.25 60.44 8.83ZM67.28 12.60L69.76 12.60L69.76 8.40C69.76 7.83 70.08 7.20 70.91 7.20C71.79 7.20 72.17 7.83 72.17 8.54L72.17 12.60L74.65 12.60L74.65 8.32C74.68 7.77 75.01 7.20 75.80 7.20C76.68 7.20 77.06 7.83 77.06 8.54L77.06 12.60L79.53 12.60L79.53 7.87C79.53 5.87 78.05 5.21 76.73 5.21C75.95 5.21 75.11 5.61 74.35 6.52C73.85 5.56 72.80 5.21 71.85 5.21C71.06 5.21 70.35 5.61 69.79 6.17L69.76 6.17L69.76 5.42L67.28 5.42ZM89.47 9.02C89.47 6.92 88.00 5.21 85.90 5.21C84.94 5.21 84.14 5.53 83.55 6.10L83.55 0.56L81.07 0.56L81.07 12.60L83.52 12.60L83.52 11.79L83.55 11.79C84.08 12.38 84.92 12.81 85.90 12.81C88.00 12.81 89.47 11.12 89.47 9.02ZM86.84 9.02C86.84 10.00 86.17 10.70 85.16 10.70C84.20 10.70 83.50 10.00 83.50 9.02C83.50 8.02 84.24 7.32 85.16 7.32C86.10 7.32 86.84 8.02 86.84 9.02Z"></path></g><!----><g data-v-423bf9ae="" id="052a8809-6fde-4dd7-b9a6-8cd3abfdac00" transform="matrix(1.1107999165852864,0,0,1.1107999165852864,-30.23465541169523,0.4730114842604962)" stroke="none" fill="white"><path d="M54.229 46.909c15.902 2.384 18.49-13.586 18.49-13.586s-21.475 1.612-19.273 12.495a11.582 11.582 0 00-2.075 2.057l-.078-7.57v-5.823s.367-2.017 2.424-4.188c16.415 2.77 19.003-13.577 19.003-13.577s-20.934 1.631-19.321 12.089c-.753.588-1.42 1.207-2.027 2.007l-.851-8.66c13.344-7.695-.763-22.13-.763-22.13s-13.72 14.435-.606 21.994l-.831 8.796c-.494-.656-.996-1.254-1.72-1.796 1.894-10.669-19.263-12.3-19.263-12.3s2.55 16.125 18.673 13.577c2.106 2.171 2.483 4.188 2.483 4.188v5.823l-.174 7.57c-.494-.696-1.11-1.284-1.777-1.863 2.608-11.077-19.205-12.688-19.205-12.688s2.55 15.778 18.229 13.586c2.425 2.317 2.927 4.644 2.927 4.644v5.532l-.174 7.619c-.494-.735-1.11-1.333-1.777-1.912C49.15 51.68 27.337 50.134 27.337 50.134s2.55 15.747 18.229 13.527c2.425 2.413 2.927 4.692 2.927 4.692v5.485l-.174 7.628c-.494-.648-1.11-1.257-1.777-1.815 2.664-11.162-19.205-12.717-19.205-12.717s2.55 15.661 18.171 13.566c2.483 2.327 2.985 4.643 2.985 4.643v14.852h2.799V85.144s.445-2.315 2.937-4.643c15.902 2.424 18.49-13.566 18.49-13.566S51.187 68.49 53.446 79.439a9.385 9.385 0 00-2.075 2.028l-.078-7.628v-5.485s.445-2.279 2.937-4.692c15.902 2.413 18.49-13.527 18.49-13.527S51.244 51.68 53.445 62.599c-.801.599-1.468 1.322-2.075 2.105l-.078-7.619v-5.532s.445-2.326 2.937-4.644z"></path></g><!----><g data-v-423bf9ae="" id="b9a3b6d1-dcc6-4262-b752-3a65bb415062" fill="white" transform="matrix(0.7700487398546473,0,0,0.7700487398546473,69.98790942237127,58.382896179744165)"><path d="M5.11 2.10C2.32 2.10 0.55 4.21 0.55 6.85C0.55 9.48 2.25 11.59 5.08 11.59C6.76 11.59 7.85 10.74 8.44 9.84L8.44 11.48L9.41 11.48L9.41 6.55L5.05 6.55L5.05 7.50L8.44 7.50C8.44 9.44 6.85 10.57 5.17 10.57C2.91 10.57 1.60 8.93 1.60 6.85C1.60 4.76 2.94 3.12 5.19 3.12C6.61 3.12 7.62 3.74 8.18 4.73L9.32 4.73C8.64 3.18 7.10 2.10 5.11 2.10ZM19.31 7.92L22.53 7.92L24.77 11.48L26.01 11.48L23.58 7.74C24.61 7.50 25.82 6.90 25.82 5.11C25.82 3.35 24.60 2.21 22.69 2.21L18.26 2.21L18.26 11.48L19.31 11.48ZM19.31 3.21L22.57 3.21C23.88 3.21 24.77 3.93 24.77 5.11C24.77 6.55 23.51 6.93 22.51 6.93L19.31 6.93ZM38.74 2.10C35.92 2.10 34.03 4.21 34.03 6.85C34.03 9.48 35.92 11.59 38.74 11.59C41.55 11.59 43.44 9.48 43.44 6.85C43.44 4.21 41.55 2.10 38.74 2.10ZM38.74 10.57C36.48 10.57 35.08 8.93 35.08 6.85C35.08 4.76 36.48 3.12 38.74 3.12C40.99 3.12 42.39 4.76 42.39 6.85C42.39 8.93 40.99 10.57 38.74 10.57ZM57.60 3.70L60.10 11.48L61.29 11.48L64.18 2.21L63.07 2.21L60.69 10.00L58.20 2.21L56.99 2.21L54.50 10.00L52.12 2.21L51.02 2.21L53.90 11.48L55.09 11.48ZM86.21 7.81L90.09 2.21L88.82 2.21L85.68 6.72L82.54 2.21L81.27 2.21L85.16 7.81L85.16 11.48L86.21 11.48ZM101.84 2.10C99.02 2.10 97.13 4.21 97.13 6.85C97.13 9.48 99.02 11.59 101.84 11.59C104.65 11.59 106.54 9.48 106.54 6.85C106.54 4.21 104.65 2.10 101.84 2.10ZM101.84 10.57C99.58 10.57 98.18 8.93 98.18 6.85C98.18 4.76 99.58 3.12 101.84 3.12C104.09 3.12 105.49 4.76 105.49 6.85C105.49 8.93 104.09 10.57 101.84 10.57ZM121.94 2.21L121.94 7.52C121.94 9.67 120.51 10.57 119.04 10.57C117.57 10.57 116.16 9.67 116.16 7.52L116.16 2.21L115.11 2.21L115.11 7.49C115.11 9.95 116.73 11.59 119.04 11.59C121.37 11.59 122.99 9.94 122.99 7.49L122.99 2.21ZM133.20 7.92L136.42 7.92L138.66 11.48L139.90 11.48L137.47 7.74C138.50 7.50 139.71 6.90 139.71 5.11C139.71 3.35 138.49 2.21 136.58 2.21L132.15 2.21L132.15 11.48L133.20 11.48ZM133.20 3.21L136.46 3.21C137.77 3.21 138.66 3.93 138.66 5.11C138.66 6.55 137.40 6.93 136.40 6.93L133.20 6.93ZM164.07 3.70L166.57 11.48L167.76 11.48L170.65 2.21L169.54 2.21L167.16 10.00L164.67 2.21L163.46 2.21L160.97 10.00L158.59 2.21L157.49 2.21L160.37 11.48L161.56 11.48ZM182.92 2.10C180.11 2.10 178.22 4.21 178.22 6.85C178.22 9.48 180.11 11.59 182.92 11.59C185.74 11.59 187.63 9.48 187.63 6.85C187.63 4.21 185.74 2.10 182.92 2.10ZM182.92 10.57C180.67 10.57 179.27 8.93 179.27 6.85C179.27 4.76 180.67 3.12 182.92 3.12C185.18 3.12 186.58 4.76 186.58 6.85C186.58 8.93 185.18 10.57 182.92 10.57ZM197.36 7.92L200.58 7.92L202.82 11.48L204.06 11.48L201.63 7.74C202.66 7.50 203.87 6.90 203.87 5.11C203.87 3.35 202.65 2.21 200.75 2.21L196.31 2.21L196.31 11.48L197.36 11.48ZM197.36 3.21L200.62 3.21C201.94 3.21 202.82 3.93 202.82 5.11C202.82 6.55 201.56 6.93 200.56 6.93L197.36 6.93ZM212.67 2.21L212.67 11.48L218.78 11.48L218.78 10.47L213.72 10.47L213.72 2.21ZM231.04 2.21L227.14 2.21L227.14 11.48L231.04 11.48C233.25 11.48 235.30 9.74 235.30 6.85C235.30 3.95 233.25 2.21 231.04 2.21ZM231.00 10.49L228.19 10.49L228.19 3.21L231.00 3.21C232.97 3.21 234.25 4.86 234.25 6.85C234.25 8.83 232.97 10.49 231.00 10.49ZM259.55 3.70L262.05 11.48L263.24 11.48L266.13 2.21L265.02 2.21L262.64 10.00L260.15 2.21L258.94 2.21L256.45 10.00L254.07 2.21L252.97 2.21L255.85 11.48L257.04 11.48ZM275.44 2.21L274.39 2.21L274.39 11.48L275.44 11.48ZM291.28 2.21L283.77 2.21L283.77 3.22L287.00 3.22L287.00 11.48L288.05 11.48L288.05 3.22L291.28 3.22ZM306.05 2.21L306.05 6.33L300.66 6.33L300.66 2.21L299.61 2.21L299.61 11.48L300.66 11.48L300.66 7.35L306.05 7.35L306.05 11.48L307.10 11.48L307.10 2.21ZM333.07 2.21L333.07 7.52C333.07 9.67 331.65 10.57 330.18 10.57C328.71 10.57 327.29 9.67 327.29 7.52L327.29 2.21L326.24 2.21L326.24 7.49C326.24 9.95 327.87 11.59 330.18 11.59C332.50 11.59 334.12 9.94 334.12 7.49L334.12 2.21ZM343.90 4.65C343.90 4.03 344.26 3.08 346.36 3.08C348.05 3.08 348.84 3.82 348.95 4.75L350.03 4.75C349.94 3.36 348.82 2.10 346.36 2.10C344.04 2.10 342.87 3.15 342.87 4.66C342.87 7.84 349.22 6.69 349.22 8.96C349.22 10.05 348.24 10.60 346.67 10.60C345.06 10.60 343.76 10.05 343.69 8.71L342.59 8.71C342.73 10.37 343.85 11.59 346.60 11.59C348.88 11.59 350.27 10.64 350.27 8.92C350.27 5.68 343.90 6.80 343.90 4.65Z"></path></g></svg>