<svg data-v-fde0c5aa="" xmlns="http://www.w3.org/2000/svg" viewBox="0 0 300 300" class="font"><!----><defs data-v-fde0c5aa=""><!----></defs><rect data-v-fde0c5aa="" fill="#7C9087" x="0" y="0" width="300px" height="300px" class="logo-background-square"></rect><defs data-v-fde0c5aa=""><!----></defs><g data-v-fde0c5aa="" id="955c2f5d-9850-4ffb-8db3-fd08f3f44cd5" fill="#CAC5BD" transform="matrix(2.4677509392541883,0,0,2.4677509392541883,39.21031964354468,129.01177783214203)"><path d="M0.52 14.36C1.27 16.11 3.00 16.45 4.49 16.45C6.94 16.45 8.72 15.20 8.72 12.80L8.72 5.42L6.24 5.42L6.24 6.06L6.20 6.06C5.61 5.52 4.84 5.21 3.89 5.21C1.79 5.21 0.32 6.92 0.32 9.02C0.32 11.12 1.79 12.81 3.89 12.81C4.87 12.81 5.71 12.67 6.24 12.08L6.24 12.61C6.24 13.89 5.18 14.29 4.49 14.29C3.42 14.29 2.81 13.80 2.55 13.37ZM2.95 9.02C2.95 8.02 3.70 7.32 4.63 7.32C5.56 7.32 6.30 8.02 6.30 9.02C6.30 10.00 5.60 10.70 4.63 10.70C3.63 10.70 2.95 10.00 2.95 9.02ZM10.40 12.60L12.88 12.60L12.88 8.82C12.88 8.64 13.06 7.36 14.35 7.36C15.18 7.36 15.64 7.76 15.64 7.76L16.67 5.66C16.67 5.66 16.03 5.21 15.11 5.21C13.69 5.21 12.91 6.45 12.91 6.45L12.88 6.45L12.88 5.42L10.40 5.42ZM24.56 9.35C24.57 9.27 24.57 9.11 24.57 9.02C24.57 6.50 22.90 5.21 20.72 5.21C18.55 5.21 16.77 6.92 16.77 9.02C16.77 11.10 18.55 12.81 20.72 12.81C22.32 12.81 23.63 12.29 24.44 10.93L22.65 10.04C22.05 10.68 21.70 10.84 20.90 10.84C20.27 10.84 19.35 10.46 19.35 9.35ZM19.42 7.98C19.46 7.32 19.94 6.82 20.79 6.82C21.52 6.82 22.04 7.22 22.15 7.98ZM33.00 9.35C33.01 9.27 33.01 9.11 33.01 9.02C33.01 6.50 31.35 5.21 29.16 5.21C26.99 5.21 25.21 6.92 25.21 9.02C25.21 11.10 26.99 12.81 29.16 12.81C30.76 12.81 32.07 12.29 32.89 10.93L31.09 10.04C30.49 10.68 30.14 10.84 29.34 10.84C28.71 10.84 27.79 10.46 27.79 9.35ZM27.86 7.98C27.90 7.32 28.38 6.82 29.23 6.82C29.96 6.82 30.48 7.22 30.59 7.98ZM34.15 12.60L36.62 12.60L36.62 8.54C36.62 7.83 37.35 7.14 38.09 7.14C38.89 7.14 39.38 7.83 39.38 8.54L39.38 12.60L41.86 12.60L41.86 7.87C41.86 5.87 40.03 5.21 38.71 5.21C37.93 5.21 37.21 5.61 36.65 6.17L36.62 6.17L36.62 5.42L34.15 5.42ZM43.74 5.42L42.70 5.42L42.70 7.31L43.74 7.31L43.74 10.07C43.74 11.34 44.21 12.81 46.19 12.81C47.21 12.81 48.01 12.36 48.01 12.36L47.39 10.36C47.39 10.36 47.10 10.58 46.77 10.58C46.38 10.58 46.21 10.26 46.21 9.59L46.21 7.31L47.73 7.31L47.73 5.42L46.21 5.42L46.21 2.74L43.74 2.74ZM48.85 12.60L51.32 12.60L51.32 8.54C51.32 7.83 52.05 7.14 52.79 7.14C53.59 7.14 54.08 7.83 54.08 8.54L54.08 12.60L56.56 12.60L56.56 7.87C56.56 5.87 54.73 5.21 53.41 5.21C52.63 5.21 51.91 5.61 51.35 6.17L51.32 6.17L51.32 0.56L48.85 0.56ZM60.44 5.42L57.96 5.42L57.96 9.44C57.96 11.84 59.16 12.81 61.85 12.81C64.54 12.81 65.74 11.84 65.74 9.44L65.74 5.42L63.27 5.42L63.27 8.83C63.27 10.25 62.89 10.79 61.85 10.79C60.82 10.79 60.44 10.25 60.44 8.83ZM67.28 12.60L69.76 12.60L69.76 8.40C69.76 7.83 70.08 7.20 70.91 7.20C71.79 7.20 72.17 7.83 72.17 8.54L72.17 12.60L74.65 12.60L74.65 8.32C74.68 7.77 75.01 7.20 75.80 7.20C76.68 7.20 77.06 7.83 77.06 8.54L77.06 12.60L79.53 12.60L79.53 7.87C79.53 5.87 78.05 5.21 76.73 5.21C75.95 5.21 75.11 5.61 74.35 6.52C73.85 5.56 72.80 5.21 71.85 5.21C71.06 5.21 70.35 5.61 69.79 6.17L69.76 6.17L69.76 5.42L67.28 5.42ZM89.47 9.02C89.47 6.92 88.00 5.21 85.90 5.21C84.94 5.21 84.14 5.53 83.55 6.10L83.55 0.56L81.07 0.56L81.07 12.60L83.52 12.60L83.52 11.79L83.55 11.79C84.08 12.38 84.92 12.81 85.90 12.81C88.00 12.81 89.47 11.12 89.47 9.02ZM86.84 9.02C86.84 10.00 86.17 10.70 85.16 10.70C84.20 10.70 83.50 10.00 83.50 9.02C83.50 8.02 84.24 7.32 85.16 7.32C86.10 7.32 86.84 8.02 86.84 9.02Z"></path></g><!----><!----></svg>